<?xml version="1.0" encoding="UTF-8"?>
<!DOCTYPE svg PUBLIC "-//W3C//DTD SVG 1.0//EN" "http://www.w3.org/TR/2001/REC-SVG-20010904/DTD/svg10.dtd">
<!-- Creator: CorelDRAW 2021.5 -->
<svg xmlns="http://www.w3.org/2000/svg" xml:space="preserve" width="13.3333in" height="6in" version="1.0" style="shape-rendering:geometricPrecision; text-rendering:geometricPrecision; image-rendering:optimizeQuality; fill-rule:evenodd; clip-rule:evenodd"
viewBox="0 0 13333.33 6000"
 xmlns:xlink="http://www.w3.org/1999/xlink"
 xmlns:xodm="http://www.corel.com/coreldraw/odm/2003">
 <defs>
  <style type="text/css">
   <![CDATA[
    .str0 {stroke:#3361AC;stroke-width:3;stroke-miterlimit:2.61313}
    .fil0 {fill:none}
    .fil1 {fill:#1260AB}
    .fil2 {fill:#E8AF30}
    .fil3 {fill:#E8AF30}
    .fil4 {fill:#1260AB;fill-rule:nonzero}
   ]]>
  </style>
 </defs>
 <g id="Layer_x0020_1">
  <metadata id="CorelCorpID_0Corel-Layer"/>
  <rect class="fil0" y="-0" width="13333.33" height="6000"/>
  <g id="_1602705803248">
   <path class="fil1" d="M10509.94 4468.5c-757.11,0 -1370.83,-613.76 -1370.83,-1370.83 0,-456.93 0,-913.9 0,-1370.83 257.51,0 514.99,0 772.51,0 -0.04,433.91 0,867.81 -0.04,1301.76 0,185.06 37.24,359.74 172.44,494.96 231.6,231.64 604.95,235.06 840.91,10.58l221.44 246.54 292.16 325.3c-244.22,225.08 -570.38,362.52 -928.59,362.52zm156.79 -1952.44c-55.03,-14.72 -111.59,-21.56 -168.23,-20.56l-367.76 0 0.04 -590.73c0,-59.31 0,-118.62 0,-177.93 126.39,0 252.78,0 379.16,0 376.63,0 717.73,151.91 965.51,397.76l-808.72 391.46zm867.14 1492.91c-6.49,7.27 -13.01,14.47 -19.64,21.6 6.63,-7.13 13.15,-14.33 19.64,-21.6zm-22.63 24.84c-11.51,12.3 -23.2,24.38 -35.14,36.25 11.9,-11.83 23.67,-23.95 35.14,-36.25zm-47.51 48.37c-7.73,7.52 -15.57,14.9 -23.49,22.2 7.95,-7.34 15.79,-14.69 23.49,-22.2z"/>
   <path class="fil2" d="M11062.5 2524.68c-757.11,0 -1370.83,613.76 -1370.83,1370.83 0,456.93 0,913.9 0,1370.83 257.52,0 514.99,0 772.51,0 -0.04,-433.91 0,-867.81 -0.04,-1301.76 0,-185.06 37.24,-359.74 172.44,-494.96 235.2,-235.24 616.61,-235.13 851.81,0.04 235.24,235.17 235.13,616.54 -0.04,851.78 -120.51,120.51 -279.4,179.24 -437.3,176.25l-367.75 0 0.04 590.73c0,59.31 0,118.62 0,177.93 126.39,0 252.77,0 379.16,0 757.07,0 1370.83,-613.72 1370.83,-1370.83 0,-757.07 -613.76,-1370.83 -1370.83,-1370.83z"/>
   <path class="fil1" d="M10924.92 3534.13l10.91 -10.62c235.24,-235.17 235.13,-616.54 -0.04,-851.78 -77.35,-77.34 -170.51,-129.2 -269.06,-155.69l420.86 -304.03 387.86 -87.43c250.28,248.35 405.32,592.59 405.32,973.07 0,398.83 -170.37,757.79 -442.25,1008.31l-376.02 -210.46 -137.58 -361.38z"/>
   <path class="fil1 str0" d="M9911.61 733.65l-772.5 0 0 772.51 772.5 0 0 -772.51z"/>
   <path class="fil1" d="M4049.41 3628.93l242.9 0c44.19,0 80.22,-36.04 80.22,-80.22 0,-385.8 0,-871.75 0,-1257.55 0,-44.19 -36.04,-80.22 -80.22,-80.22l-242.9 0c-44.19,0 -80.22,36.06 -80.22,80.22l0 137.76 0 1119.8c0,44.17 36.04,80.22 80.22,80.22z"/>
   <path class="fil1" d="M4805.37 1405.65l-242.9 0c-44.04,0 -80.22,36.04 -80.22,80.22 0,335.74 0,726.73 0,1062.47l0 0.18 0 0.17 0 0.18 0 0.18 0.01 0.17 0 0.18 0 0.18 0 0.17 0.01 0.18 0 0.17c0.09,4.15 0.49,8.22 1.19,12.19 17.49,260.18 234.02,465.83 498.64,465.85l200.28 0 0.02 0c265.95,0 483.37,-207.69 498.94,-469.75 0.58,-3.11 0.87,-6.46 0.87,-10.02l0 -15.7 0 -290.55c0,-44.1 -36.2,-80.22 -80.22,-80.22l-242.9 0c-44.1,0 -80.22,36.04 -80.22,80.22l0 386.46 -96.5 0 -200.28 0 -96.5 0 0 -80.22 0 -306.24 0 -756.23c0,-44.06 -36.32,-80.22 -80.22,-80.22z"/>
   <path class="fil1" d="M4960.78 3138.49c-44.1,0 -80.22,36.2 -80.22,80.22l0 242.9c0,44.1 36.04,80.22 80.22,80.22 80.97,0 161.93,0 242.9,0 44.19,0 80.22,-36.12 80.22,-80.22 0,-80.96 0,-161.93 0,-242.9 0,-44.02 -36.12,-80.22 -80.22,-80.22 -80.96,0 -161.93,0 -242.9,0z"/>
   <path class="fil3" d="M3322.2 3028.1l0.02 0c265.95,0 483.39,-207.69 498.95,-469.75 0.58,-3.11 0.86,-6.46 0.86,-10.02l0 -15.7 0 -290.55c0,-44.1 -36.21,-80.23 -80.22,-80.23l-242.9 0c-44.09,0 -80.22,36.05 -80.22,80.23l0 386.46 -96.5 0 -300.41 0 -96.51 0 0 -386.46c0,-44.08 -36.22,-80.23 -80.21,-80.23l-242.91 0c-44.1,0 -80.22,36.05 -80.22,80.23l0 250.48 0 6.94 0 15.1 0 13.61 0 20.11c0,3.74 0.34,7.17 0.96,10.42 15.78,261.83 56.37,469.35 322.17,469.35l477.13 0z"/>
   <path class="fil3" d="M2841.67 3164.14c-44.1,0 -80.22,36.2 -80.22,80.22 0,80.96 0,161.93 0,242.9 0,44.1 36.04,80.22 80.22,80.22 80.96,0 579.68,0 660.64,0 44.19,0 80.22,-36.12 80.22,-80.22 0,-80.96 0,-161.93 0,-242.9 0,-44.02 -36.12,-80.22 -80.22,-80.22 -80.96,0 -579.68,0 -660.64,0z"/>
   <path class="fil3" d="M3050.53 3652.96c-44.1,0 -80.22,36.2 -80.22,80.22l0 242.9c0,44.1 36.04,80.22 80.22,80.22 80.96,0 161.93,0 242.9,0 44.19,0 80.22,-36.12 80.22,-80.22 0,-80.96 0,-161.93 0,-242.9 0,-44.02 -36.12,-80.22 -80.22,-80.22 -80.96,0 -161.93,0 -242.9,0z"/>
   <path class="fil1" d="M7419.17 3028.11c80.96,0 161.93,0 242.9,0 44.19,0 80.22,-36.04 80.22,-80.22 0,-385.8 0,-830.38 0,-1216.18 0,-44.19 -36.04,-80.22 -80.22,-80.22 -80.96,0 -161.93,0 -242.9,0 -44.19,0 -80.22,36.06 -80.22,80.22 0,45.93 0,91.83 0,137.76 0,306.5 0,771.92 0,1078.42 0,44.19 36.04,80.22 80.22,80.22z"/>
   <path class="fil1" d="M7725 1112.65l-65.2 0 -427.89 0 -0.46 -0.03c-265.83,0 -483.13,207.52 -498.92,469.37 -0.63,3.22 -0.96,6.68 -0.96,10.41 0,102.07 0,58.45 0,160.54 0,44.19 36.24,80.22 80.22,80.22l242.91 0c43.77,0 80.21,-36.15 80.21,-80.22l0 -240.76 97 0 427.89 0 0 3.82 501.03 0c44.19,0 80.22,-36.03 80.22,-80.22l0 -242.89c0,-44.19 -36.06,-80.22 -80.22,-80.22l-137.76 0 -298.07 0z"/>
   <path class="fil1" d="M6692.78 3112.85l0.16 0 0.16 0 0.16 0 0.18 0 0.16 0 15.69 0 35.87 0 168.61 0 0 72.15 0 78.56 -158.49 0c-222.26,0 -321.62,0 -543.88,0l-97.01 0 0 -609.52c0,-44 -36.44,-80.22 -80.21,-80.22l-242.91 0c-43.99,0 -80.22,36.03 -80.22,80.22 0,102.09 0,427.22 0,529.29 0,3.73 0.33,7.19 0.96,10.41 15.8,261.85 233.09,469.37 498.93,469.37l0.46 -0.03c222.26,0 383.1,0 605.36,0l0.46 0.03c261.54,0 489.31,-213.72 495.48,-478.11 -12.21,-254.71 -215.12,-459.54 -469.15,-474.62 -3.12,-0.58 -6.52,-0.87 -10.02,-0.87l-15.69 0 -72.69 0 -65.89 0 -65.9 0 0 -72.15 0 -72.15 535.25 0c44.19,0 80.22,-36.29 80.22,-80.22l0 -242.89c0,-43.77 -36.19,-80.22 -80.22,-80.22l-439.33 0 -15.69 0c-3.5,0 -6.89,0.29 -10.02,0.87 -609.31,36.18 -610.72,908.72 -4.31,948.89l0 1.22 13.52 0z"/>
   <path class="fil3" d="M1881.73 3112.85l0.16 0 0.16 0 0.16 0 0.17 0 0.16 0 15.7 0 35.87 0 168.61 0 0 72.15 0 78.56 -158.49 0c-222.26,0 -321.62,0 -543.88,0l-97.01 0 0 -609.52c0,-44 -36.44,-80.22 -80.21,-80.22l-242.91 0c-43.99,0 -80.22,36.03 -80.22,80.22 0,102.09 0,427.22 0,529.29 0,3.73 0.33,7.19 0.96,10.41 15.8,261.85 233.09,469.37 498.92,469.37l0.46 -0.03c222.26,0 383.1,0 605.37,0l0.46 0.03c261.53,0 489.31,-213.72 495.48,-478.11 -12.21,-254.71 -215.12,-459.54 -469.15,-474.62 -3.12,-0.58 -6.52,-0.87 -10.02,-0.87l-15.69 0 -72.69 0 -65.89 0 -65.89 0 0 -72.15 0 -72.15 904 0c44.19,0 80.22,-36.29 80.22,-80.22l0 -242.89c0,-43.77 -36.24,-80.22 -80.22,-80.22l-808.09 0 -15.7 0c-3.5,0 -6.89,0.29 -10.02,0.87 -609.31,36.18 -610.72,908.72 -4.31,948.89l0 1.22 13.52 0z"/>
   <path class="fil4" d="M985.32 4210.52l63.13 0 0 467.68 -63.13 0 0 -467.68zm32.01 -102.25c-13.04,0 -24,-4.44 -32.9,-13.34 -8.89,-8.89 -13.33,-19.56 -13.33,-32.01 0,-11.85 4.44,-22.23 13.33,-31.12 8.89,-8.89 19.86,-13.34 32.9,-13.34 13.04,0 24.01,4.3 32.9,12.89 8.89,8.59 13.34,18.82 13.34,30.67 0,13.04 -4.44,24.01 -13.34,32.9 -8.89,8.89 -19.86,13.34 -32.9,13.34zm832.49 98.69c43.86,0 83.58,9.93 119.14,29.78 35.57,19.86 63.43,47.87 83.58,84.02 20.15,36.16 30.23,77.35 30.23,123.59 0,46.23 -10.08,87.43 -30.23,123.59 -20.15,36.16 -48.01,64.31 -83.58,84.47 -35.56,20.15 -75.28,30.23 -119.14,30.23 -39.12,0 -74.24,-8.3 -105.36,-24.89 -31.12,-16.6 -56.16,-40.61 -75.13,-72.02l0 92.47 -60.46 0 0 -659.73 63.13 0 0 280.96c19.56,-30.23 44.61,-53.2 75.13,-68.91 30.53,-15.71 64.76,-23.56 102.69,-23.56zm-4.44 419.67c32.6,0 62.24,-7.56 88.91,-22.67 26.67,-15.12 47.57,-36.6 62.68,-64.46 15.11,-27.86 22.67,-59.57 22.67,-95.13 0,-35.57 -7.56,-67.28 -22.67,-95.14 -15.11,-27.86 -36.01,-49.35 -62.68,-64.46 -26.67,-15.12 -56.31,-22.67 -88.91,-22.67 -33.19,0 -62.98,7.56 -89.36,22.67 -26.38,15.11 -47.12,36.6 -62.24,64.46 -15.11,27.86 -22.67,59.57 -22.67,95.14 0,35.56 7.56,67.28 22.67,95.13 15.12,27.86 35.86,49.35 62.24,64.46 26.38,15.11 56.17,22.67 89.36,22.67zm911.63 -419.67c61.06,0 107.88,15.26 140.48,45.79 32.6,30.52 48.9,75.72 48.9,135.59l0 289.85 -60.46 0 0 -72.91c-14.23,24.3 -35.12,43.27 -62.69,56.91 -27.56,13.63 -60.31,20.45 -98.25,20.45 -52.16,0 -93.65,-12.45 -124.48,-37.34 -30.82,-24.89 -46.24,-57.79 -46.24,-98.69 0,-39.71 14.37,-71.72 43.12,-96.03 28.75,-24.3 74.54,-36.45 137.37,-36.45l148.48 0 0 -28.45c0,-40.31 -11.26,-70.98 -33.79,-92.02 -22.52,-21.04 -55.42,-31.56 -98.69,-31.56 -29.64,0 -58.09,4.89 -85.35,14.67 -27.27,9.78 -50.68,23.27 -70.24,40.46l-28.45 -47.13c23.71,-20.15 52.16,-35.71 85.35,-46.68 33.2,-10.96 68.17,-16.45 104.92,-16.45zm-22.23 425.89c35.57,0 66.09,-8.15 91.58,-24.45 25.49,-16.3 44.45,-39.86 56.9,-70.69l0 -76.46 -146.7 0c-80.02,0 -120.03,27.86 -120.03,83.57 0,27.27 10.37,48.76 31.12,64.46 20.75,15.7 49.79,23.56 87.13,23.56zm931.19 -425.89c61.06,0 107.88,15.26 140.48,45.79 32.6,30.52 48.9,75.72 48.9,135.59l0 289.85 -60.46 0 0 -72.91c-14.23,24.3 -35.12,43.27 -62.69,56.91 -27.56,13.63 -60.31,20.45 -98.25,20.45 -52.16,0 -93.65,-12.45 -124.48,-37.34 -30.82,-24.89 -46.24,-57.79 -46.24,-98.69 0,-39.71 14.37,-71.72 43.12,-96.03 28.75,-24.3 74.54,-36.45 137.37,-36.45l148.48 0 0 -28.45c0,-40.31 -11.26,-70.98 -33.79,-92.02 -22.52,-21.04 -55.42,-31.56 -98.69,-31.56 -29.64,0 -58.09,4.89 -85.35,14.67 -27.27,9.78 -50.68,23.27 -70.24,40.46l-28.45 -47.13c23.71,-20.15 52.16,-35.71 85.35,-46.68 33.2,-10.96 68.17,-16.45 104.92,-16.45zm-22.23 425.89c35.57,0 66.09,-8.15 91.58,-24.45 25.49,-16.3 44.45,-39.86 56.9,-70.69l0 -76.46 -146.7 0c-80.02,0 -120.03,27.86 -120.03,83.57 0,27.27 10.37,48.76 31.12,64.46 20.75,15.7 49.79,23.56 87.13,23.56zm828.05 -330.75c14.82,-31.42 36.9,-55.13 66.24,-71.13 29.34,-16 65.65,-24 108.92,-24l0 61.35 -15.11 -0.89c-49.2,0 -87.73,15.11 -115.59,45.35 -27.86,30.23 -41.79,72.61 -41.79,127.14l0 238.29 -63.13 0 0 -467.68 60.46 0 0 91.58zm1233.56 -95.14c43.86,0 83.58,9.93 119.14,29.78 35.57,19.86 63.43,47.87 83.58,84.02 20.15,36.16 30.23,77.35 30.23,123.59 0,46.83 -10.08,88.32 -30.23,124.48 -20.15,36.16 -47.86,64.17 -83.13,84.02 -35.27,19.85 -75.13,29.78 -119.59,29.78 -37.94,0 -72.17,-7.85 -102.69,-23.56 -30.53,-15.7 -55.57,-38.67 -75.13,-68.91l0 260.52 -63.13 0 0 -640.17 60.46 0 0 92.47c18.97,-30.82 44.01,-54.53 75.13,-71.13 31.12,-16.59 66.24,-24.89 105.36,-24.89zm-4.44 419.67c32.6,0 62.24,-7.56 88.91,-22.67 26.67,-15.12 47.57,-36.6 62.68,-64.46 15.11,-27.86 22.67,-59.57 22.67,-95.13 0,-35.57 -7.56,-67.13 -22.67,-94.69 -15.11,-27.56 -36.01,-49.05 -62.68,-64.46 -26.67,-15.41 -56.31,-23.12 -88.91,-23.12 -33.19,0 -62.98,7.7 -89.36,23.12 -26.38,15.41 -47.12,36.9 -62.24,64.46 -15.11,27.56 -22.67,59.13 -22.67,94.69 0,35.56 7.56,67.28 22.67,95.13 15.12,27.86 35.86,49.35 62.24,64.46 26.38,15.11 56.17,22.67 89.36,22.67zm911.63 -419.67c61.06,0 107.88,15.26 140.48,45.79 32.6,30.52 48.9,75.72 48.9,135.59l0 289.85 -60.46 0 0 -72.91c-14.23,24.3 -35.12,43.27 -62.69,56.91 -27.56,13.63 -60.31,20.45 -98.25,20.45 -52.16,0 -93.65,-12.45 -124.48,-37.34 -30.82,-24.89 -46.24,-57.79 -46.24,-98.69 0,-39.71 14.37,-71.72 43.12,-96.03 28.75,-24.3 74.54,-36.45 137.37,-36.45l148.48 0 0 -28.45c0,-40.31 -11.26,-70.98 -33.79,-92.02 -22.52,-21.04 -55.42,-31.56 -98.69,-31.56 -29.64,0 -58.09,4.89 -85.35,14.67 -27.27,9.78 -50.68,23.27 -70.24,40.46l-28.45 -47.13c23.71,-20.15 52.16,-35.71 85.35,-46.68 33.2,-10.96 68.17,-16.45 104.92,-16.45zm-22.23 425.89c35.57,0 66.09,-8.15 91.58,-24.45 25.49,-16.3 44.45,-39.86 56.9,-70.69l0 -76.46 -146.7 0c-80.02,0 -120.03,27.86 -120.03,83.57 0,27.27 10.37,48.76 31.12,64.46 20.75,15.7 49.79,23.56 87.13,23.56zm1151.69 -422.33l-233.84 523.7c-18.97,43.86 -40.9,74.98 -65.8,93.36 -24.9,18.37 -54.83,27.56 -89.8,27.56 -22.52,0 -43.57,-3.56 -63.13,-10.67 -19.56,-7.11 -36.46,-17.78 -50.68,-32.01l29.34 -47.13c23.71,23.71 52.16,35.57 85.35,35.57 21.34,0 39.57,-5.93 54.68,-17.78 15.11,-11.85 29.19,-32.01 42.23,-60.46l20.45 -45.35 -208.94 -466.79 65.8 0 176.05 397.44 176.05 -397.44 62.24 0z"/>
  </g>
 </g>
</svg>
